<?xml version="1.0" encoding="utf-8"?>
<!-- Generator: Adobe Illustrator 17.0.0, SVG Export Plug-In . SVG Version: 6.00 Build 0)  -->
<!DOCTYPE svg PUBLIC "-//W3C//DTD SVG 1.1//EN" "http://www.w3.org/Graphics/SVG/1.1/DTD/svg11.dtd">
<svg version="1.1" id="Star_Trek_Logo" xmlns="http://www.w3.org/2000/svg" xmlns:xlink="http://www.w3.org/1999/xlink" x="0px"
	 y="0px" width="290.445px" height="478.145px" viewBox="102.912 15.163 290.445 478.145"
	 enable-background="new 102.912 15.163 290.445 478.145" xml:space="preserve">
<path d="M248.166,15.163c92.957,126.715,140.914,284.508,145.191,444.961c-26.759-52.127-55.642-102.181-86.207-146.488
	c-9.916-15.383-15.021-13.233-36.504-0.254c-70.404,47.14-119.193,112.199-167.734,179.926
	C114.191,328.335,144.607,143.661,248.166,15.163L248.166,15.163z"/>
<path fill="#FFD700" d="M248.008,36.431C176.276,117.63,133.004,277.966,116.729,441.57
	c42.963-59.619,100.02-121.582,150.414-149.693c24.873-13.496,32.478-6.764,41.482,3.324c23.395,28.012,47.541,68.303,64.68,100.225
	C359.951,251.232,313.889,126.536,248.008,36.431z M267.959,232.032l4.867,34.731l-26.441-31.624l-24.949,31.938l3.969-35.078
	l-44.049-15.01l47.1-11.728l18.977-145.74l16.544,145.727l48.874,11.736L267.959,232.032z"/>
</svg>
